,
.   http://www.scenetime.com/signup.php  ---&gt;  Hottest scene tracker on the net !!!
 
Scenetime lucky draw is started , join now and be the winner . offer is limited 

    Join Now   http://www.scenetime.com/signup.php

    seed back for speed


 



...................................NFO:.................................................ooooo oooo   oooo oooooooo8 oooooooooo  o88   oooooooooo       o      ooooo       
 888   8888o  88 888         888    888 oooo   888    888     888      888        
 888   88 888o88  888oooooo  888oooo88   888   888oooo88     8  88     888        
 888   88   8888         888 888         888   888  88o     8oooo88    888      o 
o888o o88o    88 o88oooo888 o888o       o888o o888o  88o8 o88o  o888o o888ooooo88 

 
TITLE: 

Jack And Jill 2011 TS READNFO XViD - INSPiRAL

IMDB: 
 
http://www.imdb.com/title/tt0810913/


SOURCES:

VIDEO - Jack and Jill 2011 TS NEW SOURCE READNFO XviD - FYA  first 31mins
        Jack And Jill 2011 TS READNFO XViD - U.S.M from 31mins til end
AUDIO - Audio see above
SUBS  - NONE

STATS:

Video
ID                               : 0
Format                           : MPEG-4 Visual
Format profile                   : Advanced Simple@L5
Format settings, BVOP            : 2
Format settings, QPel            : No
Format settings, GMC             : No warppoints
Format settings, Matrix          : Default (MPEG)
Muxing mode                      : Packed bitstream
Codec ID                         : XVID
Codec ID/Hint                    : XviD
Duration                         : 1h 27mn
Bit rate                         : 2 077 Kbps
Width                            : 720 pixels
Height                           : 400 pixels
Display aspect ratio             : 16:9
Frame rate                       : 23.976 fps
Color space                      : YUV
Chroma subsampling               : 4:2:0
Bit depth                        : 8 bits
Scan type                        : Progressive
Compression mode                 : Lossy
Bits/(Pixel*Frame)               : 0.301
Stream size                      : 1.27 GiB (94%)
Writing library                  : XviD 64

Audio
ID                               : 1
Format                           : MPEG Audio
Format version                   : Version 1
Format profile                   : Layer 3
Mode                             : Joint stereo
Mode extension                   : MS Stereo
Codec ID                         : 55
Codec ID/Hint                    : MP3
Duration                         : 1h 27mn
Bit rate mode                    : Constant
Bit rate                         : 128 Kbps
Channel(s)                       : 2 channels
Sampling rate                    : 44.1 KHz
Compression mode                 : Lossy
Stream size                      : 80.3 MiB (6%)
Alignment                        : Split accross interleaves
Interleave, duration             : 42 ms (1.00 video frame)
Interleave, preload duration     : 500 ms
Writing library                  : LAME3.98r
Encoding settings                : -m j -V 4 -q 2 -lowpass 17 -b 128


NOTES:

Right decided to take the best of the best and mux them together to get a really nice copy.
Now usm's is used for the bulk of the film so needed to change the AR and framerate on FYA's release so i could
append them.
Now the FYA's AR was off,but not in all parts,so guessing the source had movement and has been cropped differently....
Well by changing the AR i fixed most parts but there is still some.specially near the begining where the AR is off ...
but only way round that would have been to add black borders,but IMHO that looks worse.
Got to be honest and say i've done nothing to the videos nor audios .....just the work on getting the 2 files to append.


SCREENS:

[IMG]http://i.imgur.com/J8zOh.png[/IMG]
[IMG]http://i.imgur.com/qBEzB.png[/IMG]
[IMG]http://i.imgur.com/7Npkn.png[/IMG]
[IMG]http://i.imgur.com/lOaCe.png[/IMG]
[IMG]http://i.imgur.com/V8D4V.png[/IMG]


GREETZ: 

Past,Present and Future